<?xml version="1.0" encoding="utf-8"?>
<!-- Generator: Adobe Illustrator 23.1.0, SVG Export Plug-In . SVG Version: 6.00 Build 0)  -->
<svg version="1.1" xmlns="http://www.w3.org/2000/svg" xmlns:xlink="http://www.w3.org/1999/xlink" x="0px" y="0px"
	 viewBox="0 0 152.68 184.25" style="enable-background:new 0 0 152.68 184.25;" xml:space="preserve">
<style type="text/css">
	.st0{fill:none;stroke:#000000;stroke-miterlimit:10;}
</style>
<g id="Layer_2">
	<rect class="st0" width="72.57" height="96.6"/>
	<rect x="72.57" class="st0" width="42.41" height="90.48"/>
	<rect x="114.98" class="st0" width="37.7" height="90.48"/>
	<rect y="96.6" class="st0" width="51.84" height="87.65"/>
	<rect x="51.84" y="124.88" class="st0" width="31.1" height="59.38"/>
	<rect x="51.84" y="96.6" class="st0" width="31.1" height="28.27"/>
	<polygon class="st0" points="108.38,165.03 108.38,184.25 152.68,184.25 152.68,126.05 104.14,126.05 104.14,165.05 	"/>
	<polygon class="st0" points="104.14,155.15 82.94,155.15 82.94,184.25 108.38,184.25 108.38,165.03 104.14,165.05 	"/>
	<polygon class="st0" points="82.94,90.48 152.68,90.48 152.68,126.05 104.14,126.05 104.14,155.15 82.94,155.15 82.94,126.05 	"/>
</g>
<g id="Layer_3">
	<line class="st0" x1="108.38" y1="38.96" x2="121.59" y2="38.96"/>
	<line class="st0" x1="97.54" y1="139.37" x2="110.75" y2="139.37"/>
	<line class="st0" x1="76.33" y1="139.37" x2="89.54" y2="139.37"/>
	<line class="st0" x1="76.33" y1="112.27" x2="89.54" y2="112.27"/>
	<line class="st0" x1="45.23" y1="112.27" x2="58.44" y2="112.27"/>
	<line class="st0" x1="102.26" y1="97.08" x2="102.26" y2="83.87"/>
	<line class="st0" x1="60.79" y1="103.21" x2="60.79" y2="90"/>
	<line class="st0" x1="94.72" y1="161.76" x2="94.72" y2="148.55"/>
</g>
</svg>
